# xmcd CD database file
#
# Track frame offsets:
#	150
#	27997
#	50647
#	74787
#	89560
#	111102
#	133847
#	176410
#	206702
#	242665
#	263587
#	307775
#
# Disc length: 4451 seconds
#
# Revision: 1
# Processed by: cddbd v1.5PL3 Copyright (c) Steve Scherf et al.
# Submitted via: CDex 1.51
#
DISCID=ad11610c
DTITLE=Beethoven - ???????????
DYEAR=1996
DGENRE=Classical
TTITLE0=????????
TTITLE1=?????2??
TTITLE2=?????3??
TTITLE3=????????
TTITLE4=????1??
TTITLE5=?????1??
TTITLE6=???? ?2?
TTITLE7=?????1??
TTITLE8=?????2????
TTITLE9=??? ?7? ?3??
TTITLE10=?????5??
TTITLE11=?????4????
EXTD=YEAR: 1996
EXTT0=
EXTT1=
EXTT2=
EXTT3=
EXTT4=
EXTT5=
EXTT6=
EXTT7=
EXTT8=
EXTT9=
EXTT10=
EXTT11=
PLAYORDER=
